<svg width="477" height="338" viewBox="0 0 477 338" fill="none" xmlns="http://www.w3.org/2000/svg">
<path d="M411.739 0H368.261C366.385 0 364.864 1.52114 364.864 3.39674V46.8753C364.864 48.7509 366.385 50.2721 368.261 50.2721H411.739C413.615 50.2721 415.136 48.7509 415.136 46.8753V3.39674C415.136 1.52114 413.615 0 411.739 0ZM408.342 43.4783H371.658V6.79348H408.342V43.4783V43.4783Z" fill="#34B994" fill-opacity="0.75"/>
<path d="M473.603 0H430.125C428.249 0 426.728 1.52114 426.728 3.39674V46.8753C426.728 48.7509 428.249 50.2721 430.125 50.2721H473.603C475.479 50.2721 477 48.7509 477 46.8753V3.39674C477 1.52114 475.479 0 473.603 0ZM470.207 43.4783H433.521V6.79348H470.207V43.4783Z" fill="#34B994" fill-opacity="0.75"/>
<path d="M349.875 61.821H306.397C304.521 61.821 303 63.3422 303 65.2178V108.696C303 110.572 304.521 112.093 306.397 112.093H349.875C351.751 112.093 353.272 110.572 353.272 108.696V65.2178C353.272 63.3418 351.751 61.821 349.875 61.821ZM346.479 105.299H309.793V68.6145H346.478V105.299H346.479Z" fill="#34B994" fill-opacity="0.75"/>
<path d="M411.739 61.821H368.261C366.385 61.821 364.864 63.3422 364.864 65.2178V108.696C364.864 110.572 366.385 112.093 368.261 112.093H411.739C413.615 112.093 415.136 110.572 415.136 108.696V65.2178C415.136 63.3418 413.615 61.821 411.739 61.821ZM408.342 105.299H371.658V68.6145H408.342V105.299V105.299Z" fill="#34B994" fill-opacity="0.75"/>
<path d="M473.603 61.821H430.125C428.249 61.821 426.728 63.3422 426.728 65.2178V108.696C426.728 110.572 428.249 112.093 430.125 112.093H473.603C475.479 112.093 477 110.572 477 108.696V65.2178C477 63.3418 475.479 61.821 473.603 61.821ZM470.207 105.299H433.521V68.6145H470.207V105.299Z" fill="#34B994" fill-opacity="0.75"/>
<path d="M349.875 123.642H306.397C304.521 123.642 303 125.163 303 127.038V170.517C303 172.393 304.521 173.914 306.397 173.914H349.875C351.751 173.914 353.272 172.393 353.272 170.517V127.038C353.272 125.163 351.751 123.642 349.875 123.642ZM346.479 167.12H309.793V130.435H346.478V167.12H346.479Z" fill="#34B994" fill-opacity="0.75"/>
<path d="M411.739 123.642H368.261C366.385 123.642 364.864 125.163 364.864 127.038V170.517C364.864 172.393 366.385 173.914 368.261 173.914H411.739C413.615 173.914 415.136 172.393 415.136 170.517V127.038C415.136 125.163 413.615 123.642 411.739 123.642ZM408.342 167.12H371.658V130.435H408.342V167.12V167.12Z" fill="#34B994" fill-opacity="0.75"/>
<path d="M473.603 123.642H468.422C466.546 123.642 465.025 125.163 465.025 127.038C465.025 128.914 466.546 130.435 468.422 130.435H470.207V167.12H433.521V130.435H438.077C439.953 130.435 441.474 128.914 441.474 127.039C441.474 125.163 439.953 123.642 438.077 123.642H430.125C428.249 123.642 426.728 125.163 426.728 127.039V170.517C426.728 172.393 428.249 173.914 430.125 173.914H473.603C475.479 173.914 477 172.393 477 170.517V127.038C477 125.163 475.479 123.642 473.603 123.642Z" fill="#34B994" fill-opacity="0.75"/>
<path d="M329.379 44.4737C328.747 43.8416 327.871 43.4783 326.978 43.4783C326.081 43.4783 325.208 43.8416 324.576 44.4737C323.945 45.1054 323.581 45.9819 323.581 46.875C323.581 47.7685 323.944 48.6446 324.576 49.2763C325.208 49.9085 326.085 50.2721 326.978 50.2721C327.871 50.2721 328.747 49.9088 329.379 49.2763C330.011 48.6449 330.374 47.7685 330.374 46.875C330.374 45.9819 330.011 45.1054 329.379 44.4737Z" fill="#34B994" fill-opacity="0.75"/>
<path d="M349.875 0H306.397C304.521 0 303 1.52114 303 3.39674V46.8753C303 48.7509 304.521 50.2721 306.397 50.2721H311.578C313.454 50.2721 314.975 48.7509 314.975 46.8753C314.975 44.9997 313.454 43.4786 311.578 43.4786H309.793V6.79348H346.478V43.4783H341.922C340.046 43.4783 338.526 44.9994 338.526 46.875C338.526 48.7506 340.046 50.2717 341.922 50.2717H349.875C351.751 50.2717 353.272 48.7506 353.272 46.875V3.39674C353.272 1.52114 351.751 0 349.875 0Z" fill="#34B994" fill-opacity="0.75"/>
<rect y="58" width="420" height="280" fill="#EFEFEF"/>
</svg>
