<svg width="468" height="332" viewBox="0 0 468 332" fill="none" xmlns="http://www.w3.org/2000/svg">
<path d="M19.1128 0C8.57375 0 0 8.6256 0 19.2278C0 21.2188 1.60508 22.8335 3.58409 22.8335C5.56311 22.8335 7.16819 21.2188 7.16819 19.2278C7.16819 12.6022 12.5264 7.21154 19.1128 7.21154C25.6992 7.21154 31.0574 12.6022 31.0574 19.2278C31.0574 25.8534 25.6992 31.2446 19.1128 31.2446C17.1338 31.2446 15.5287 32.8594 15.5287 34.8504C15.5287 36.8414 17.1338 38.4561 19.1128 38.4561C29.6518 38.4561 38.2256 29.8299 38.2256 19.2278C38.2256 8.6256 29.6512 0 19.1128 0Z" fill="#8360C3" fill-opacity="0.75"/>
<path d="M87.2715 0C76.7325 0 68.1587 8.6256 68.1587 19.2278C68.1587 29.8299 76.7331 38.4561 87.2715 38.4561C97.8099 38.4561 106.384 29.8299 106.384 19.2278C106.384 8.6256 97.8099 0 87.2715 0ZM87.2715 31.2446C80.6851 31.2446 75.3269 25.854 75.3269 19.2278C75.3269 12.6022 80.6851 7.21154 87.2715 7.21154C93.8579 7.21154 99.2161 12.6022 99.2161 19.2278C99.2161 25.854 93.8579 31.2446 87.2715 31.2446Z" fill="#8360C3" fill-opacity="0.75"/>
<path d="M155.43 38.4561C165.969 38.4561 174.543 29.8299 174.543 19.2278C174.543 8.6256 165.969 0 155.43 0C144.891 0 136.317 8.6256 136.317 19.2278C136.317 29.8299 144.891 38.4561 155.43 38.4561ZM155.43 7.21154C162.016 7.21154 167.375 12.6022 167.375 19.2278C167.375 25.854 162.017 31.2446 155.43 31.2446C148.844 31.2446 143.486 25.854 143.486 19.2278C143.486 12.6022 148.844 7.21154 155.43 7.21154Z" fill="#8360C3" fill-opacity="0.75"/>
<path d="M19.1128 69.3661C8.57375 69.3661 0 77.9923 0 88.5945C0 99.1966 8.57375 107.823 19.1128 107.823C29.6518 107.823 38.2256 99.1966 38.2256 88.5945C38.2256 77.9923 29.6512 69.3661 19.1128 69.3661ZM19.1128 100.611C12.527 100.611 7.16819 95.2207 7.16819 88.5945C7.16819 81.9683 12.5264 76.5776 19.1128 76.5776C25.6992 76.5776 31.0574 81.9683 31.0574 88.5945C31.0574 95.2207 25.6992 100.611 19.1128 100.611Z" fill="#8360C3" fill-opacity="0.75"/>
<path d="M102.8 84.9887C100.821 84.9887 99.2161 86.6035 99.2161 88.5945C99.2161 95.2201 93.8579 100.611 87.2715 100.611C80.6851 100.611 75.3269 95.2201 75.3269 88.5945C75.3269 81.9689 80.6851 76.5776 87.2715 76.5776C89.2505 76.5776 90.8556 74.9628 90.8556 72.9719C90.8556 70.9809 89.2505 69.3661 87.2715 69.3661C76.7325 69.3661 68.1587 77.9923 68.1587 88.5945C68.1587 99.1966 76.7331 107.823 87.2715 107.823C97.8099 107.823 106.384 99.1966 106.384 88.5945C106.384 86.6029 104.779 84.9887 102.8 84.9887Z" fill="#8360C3" fill-opacity="0.75"/>
<path d="M155.43 69.3661C144.891 69.3661 136.317 77.9923 136.317 88.5945C136.317 99.1966 144.892 107.823 155.43 107.823C165.969 107.823 174.543 99.1966 174.543 88.5945C174.543 77.9923 165.969 69.3661 155.43 69.3661ZM155.43 100.611C148.844 100.611 143.486 95.2207 143.486 88.5945C143.486 81.9683 148.844 76.5776 155.43 76.5776C162.016 76.5776 167.375 81.9683 167.375 88.5945C167.375 95.2207 162.016 100.611 155.43 100.611Z" fill="#8360C3" fill-opacity="0.75"/>
<path d="M19.1128 138.733C8.57375 138.733 0 147.359 0 157.961C0 168.563 8.57375 177.189 19.1128 177.189C29.6518 177.189 38.2256 168.563 38.2256 157.961C38.2256 147.359 29.6512 138.733 19.1128 138.733ZM19.1128 169.977C12.527 169.977 7.16819 164.587 7.16819 157.961C7.16819 151.335 12.5264 145.944 19.1128 145.944C25.6992 145.944 31.0574 151.335 31.0574 157.961C31.0574 164.587 25.6992 169.977 19.1128 169.977Z" fill="#8360C3" fill-opacity="0.75"/>
<path d="M87.2715 138.733C76.7325 138.733 68.1587 147.359 68.1587 157.961C68.1587 168.563 76.7331 177.189 87.2715 177.189C97.8099 177.189 106.384 168.563 106.384 157.961C106.384 147.359 97.8099 138.733 87.2715 138.733ZM87.2715 169.977C80.6851 169.977 75.3269 164.587 75.3269 157.961C75.3269 151.335 80.6851 145.944 87.2715 145.944C93.8579 145.944 99.2161 151.335 99.2161 157.961C99.2161 164.587 93.8579 169.977 87.2715 169.977Z" fill="#8360C3" fill-opacity="0.75"/>
<path d="M155.43 138.733C144.891 138.733 136.317 147.359 136.317 157.961C136.317 168.563 144.892 177.189 155.43 177.189C165.969 177.189 174.543 168.563 174.543 157.961C174.543 147.359 165.969 138.733 155.43 138.733ZM155.43 169.977C148.844 169.977 143.486 164.587 143.486 157.961C143.486 151.335 148.844 145.944 155.43 145.944C162.016 145.944 167.375 151.335 167.375 157.961C167.375 164.587 162.016 169.977 155.43 169.977Z" fill="#8360C3" fill-opacity="0.75"/>
<rect x="48" y="52" width="420" height="280" fill="#EFEFEF"/>
</svg>
